# xmcd CD database file
#
# Track frame offsets:
#	150
#	14829
#	29953
#	44896
#	59850
#	74962
#	88282
#	101148
#	115713
#	127603
#	142682
#	158550
#	173870
#	190363
#	206567
#	225343
#	240161
#	258450
#	280357
#	298174
#
# Disc length: 4232 seconds
#
# Revision: 1
# Processed by: cddbd v1.5.2PL0 Copyright (c) Steve Scherf et al.
# Submitted via: CDex 1.85
#
DISCID=39108614
DTITLE=Ella Fitzgerald - Songbooks [CD3]
DYEAR=2012
DGENRE=Jazz
TTITLE0=Oh, Lady Be Good
TTITLE1=My One And Only
TTITLE2=Someone To Watch Over Me
TTITLE3=But Not For Me
TTITLE4=How Long Has This Been Goin' On?
TTITLE5=I Was Doing All Right
TTITLE6=Soon
TTITLE7=Looking For A Boy
TTITLE8=Nice Work If You Can Get It
TTITLE9=I've Got A Crush On You
TTITLE10=Get Happy
TTITLE11=Come Rain Or Come Shine
TTITLE12=Ac-cent-tchu-ate The Positive
TTITLE13=It's Only A Paper Moon
TTITLE14=That Old Black Magic
TTITLE15=Ding Dong! The Witch Is Dead
TTITLE16=Let's Fall In Love
TTITLE17=I've Got The World On A String
TTITLE18=One For My Baby (And One More For The Road)
TTITLE19=Over The Rainbow
EXTD=YEAR: 2012
EXTT0=
EXTT1=
EXTT2=
EXTT3=
EXTT4=
EXTT5=
EXTT6=
EXTT7=
EXTT8=
EXTT9=
EXTT10=
EXTT11=
EXTT12=
EXTT13=
EXTT14=
EXTT15=
EXTT16=
EXTT17=
EXTT18=
EXTT19=
PLAYORDER=
